<svg width="28" height="32" viewBox="0 0 28 32" fill="none" xmlns="http://www.w3.org/2000/svg">
<path d="M25.3317 3.62238H24.396V26.6099C24.396 28.137 23.1529 29.3801 21.6258 29.3801H12.1454H4.60651V30.2322C4.60651 31.208 5.39849 32 6.37426 32H15.8513H25.3283C26.3041 32 27.0961 31.208 27.0961 30.2322V5.39013C27.0961 4.41436 26.3074 3.62238 25.3317 3.62238Z" fill="black" fill-opacity="0.3"/>
<path d="M12.1453 28.3776H21.6224C22.5982 28.3776 23.3901 27.5857 23.3901 26.6099V3.62239V1.76775C23.3901 0.791981 22.5982 0 21.6224 0H12.1453H8.99413V0.584796C9.00078 0.644946 9.00416 0.708439 9.00416 0.771931V4.6249V5.61404C9.00416 6.98748 7.88803 8.1036 6.5146 8.1036H5.52546H1.67249C1.62236 8.1036 1.5689 8.10026 1.51877 8.09692H0.9039V26.6099C0.9039 27.5857 1.69588 28.3776 2.67165 28.3776H4.60984H12.1453ZM12.5029 22.3693H6.32412C5.86297 22.3693 5.4887 21.995 5.4887 21.5339C5.4887 21.0727 5.86297 20.6984 6.32412 20.6984H12.5063C12.9674 20.6984 13.3417 21.0727 13.3417 21.5339C13.3417 21.995 12.9641 22.3693 12.5029 22.3693ZM18.685 18.1053H6.32412C5.86297 18.1053 5.4887 17.731 5.4887 17.2699C5.4887 16.8087 5.86297 16.4345 6.32412 16.4345H18.685C19.1462 16.4345 19.5205 16.8087 19.5205 17.2699C19.5205 17.731 19.1462 18.1053 18.685 18.1053ZM6.32412 11.9064H18.685C19.1462 11.9064 19.5205 12.2807 19.5205 12.7419C19.5205 13.203 19.1462 13.5773 18.685 13.5773H6.32412C5.86297 13.5773 5.4887 13.203 5.4887 12.7419C5.4887 12.2807 5.86297 11.9064 6.32412 11.9064Z" fill="black" fill-opacity="0.2"/>
<path d="M1.67245 7.10103H6.51454C6.51788 7.10103 6.52457 7.10103 6.52791 7.10103C7.3366 7.09435 7.99157 6.43938 7.99825 5.63069C7.99825 5.62735 7.99825 5.62066 7.99825 5.61732V0.77187C7.99825 0.324083 7.63066 0.0266724 7.24975 0.0266724C7.06595 0.0266724 6.88216 0.0935062 6.72844 0.247224L1.14446 5.83119C0.676625 6.29903 1.00745 7.10103 1.67245 7.10103Z" fill="black" fill-opacity="0.2"/>
</svg>
